<svg xmlns="http://www.w3.org/2000/svg" viewBox="0 0 196.58 90.38"><defs><style>.cls-1{fill:#dd5959;stroke:#dd5959;stroke-miterlimit:10;}.cls-2{font-size:53.57px;fill:#eee;font-family:HalloweenSpider, Halloween Spider;}</style></defs><g id="Layer_2" data-name="Layer 2"><g id="Layer_1-2" data-name="Layer 1"><g id="Layer_2-2" data-name="Layer 2"><g id="Layer_1-2-2" data-name="Layer 1-2"><g id="Layer_2-2-2" data-name="Layer 2-2"><g id="Layer_1-2-2-2" data-name="Layer 1-2-2"><path class="cls-1" d="M121.31,23.15,120.05,21a2.29,2.29,0,0,0-1.94-1.14,2.26,2.26,0,0,0-2,1.13,7.19,7.19,0,0,1-.67,1.05l.36-.46A8.13,8.13,0,0,1,114.36,23l.48-.37-.25.18,3.32,1.4-.4-3a2.28,2.28,0,0,0-.6-1,1.67,1.67,0,0,0-.74-.48,1.71,1.71,0,0,0-.83-.19,2.3,2.3,0,0,0-1.15.3,22.76,22.76,0,0,0-4,3.42l3.57.46,0,0,.23.56a17.76,17.76,0,0,1-1.18-4.54l.07.58c0-.36-.07-.73-.09-1.1l-.08-.58a1.62,1.62,0,0,0-.41-.8,1.05,1.05,0,0,0-.41-.4,1.73,1.73,0,0,0-.77-.4l-.58-.09L110,17a1.72,1.72,0,0,0-.8.42,1.61,1.61,0,0,0-.6.64q-2.92,4-5.77,8l-1.61,2.29,4.22,1.14q.27-2.73.61-5.44l.21-1.54-.08.58q.6-4.34,1.41-8.61c.15-.81.31-1.62.47-2.42a1.75,1.75,0,0,0,0-.88,2,2,0,0,0-.86-1.5,1.63,1.63,0,0,0-.77-.4,2.27,2.27,0,0,0-1.73.23l-.49.37a2.22,2.22,0,0,0-.56,1q-.7,3.5-1.27,7c-.4,2.52-.76,5.05-1.06,7.58-.16,1.32-.3,2.66-.43,4l.07.58a1.63,1.63,0,0,0,.42.8,1,1,0,0,0,.41.42,1.78,1.78,0,0,0,.77.4l.57.08.58-.07a1.72,1.72,0,0,0,.8-.42,1.67,1.67,0,0,0,.6-.64q2.84-4.07,5.74-8.06l1.64-2.25-4.22-1.15a19.88,19.88,0,0,0,.93,5.08c.19.6.43,1.17.67,1.75a2.26,2.26,0,0,0,.84.84,2.44,2.44,0,0,0,1.69.22,2.35,2.35,0,0,0,1-.6,19.76,19.76,0,0,1,2.61-2.4l-.48.37c.29-.23.59-.44.89-.65l-3.32-1.39.39,3a2.26,2.26,0,0,0,.6,1.05,1.69,1.69,0,0,0,.73.46,1.65,1.65,0,0,0,.84.19,2.19,2.19,0,0,0,1.14-.3,10.19,10.19,0,0,0,1.83-1.58,12.33,12.33,0,0,0,.88-1.14,7.11,7.11,0,0,0,.51-.83l-3.93,0,1.28,2.16a1.66,1.66,0,0,0,.6.66,1.6,1.6,0,0,0,.76.4,2.56,2.56,0,0,0,1.72-.22,2.31,2.31,0,0,0,1.06-1.37,2.4,2.4,0,0,0-.23-1.72Z"/><path class="cls-1" d="M127.72,19.12,126.52,17l-1.91,3.27a9.69,9.69,0,0,0,4.52-1,2.17,2.17,0,0,0,.81-.81,1.83,1.83,0,0,0,.25-.79,1.6,1.6,0,0,0,0-.84,2.23,2.23,0,0,0-.58-1l-2.28-1.77-.45,3.45q.5-.24,1-.45l-.55.22a19.24,19.24,0,0,1,3.24-1,2.23,2.23,0,0,0,1-.58,2.46,2.46,0,0,0,.63-1.52,2.27,2.27,0,0,0-.29-1.11A21.22,21.22,0,0,0,130.11,11a16.78,16.78,0,0,0-1.68-1.48c-.47-.37-1-.74-1.46-1.07l-1.1,4.08c3.18-.33,6.35-.64,9.53-.91l2.68-.23.56-.07a1.67,1.67,0,0,0,.78-.4,1.1,1.1,0,0,0,.4-.4,1.64,1.64,0,0,0,.39-.75l.07-.55-.06-.56a1.68,1.68,0,0,0-.41-.78,1.58,1.58,0,0,0-.63-.57c-2.23-1-4.5-2-6.79-2.95-2.13-.87-4.26-1.71-6.41-2.5-1.22-.44-2.44-.88-3.67-1.29a1.52,1.52,0,0,0-.82,0,1.94,1.94,0,0,0-1.46.83,1.64,1.64,0,0,0-.38.74,2.18,2.18,0,0,0,.21,1.66l.36.47a2.23,2.23,0,0,0,1,.55c2.66.92,5.31,1.89,7.93,2.93q1.11.43,2.22.9l-.52-.21c1.62.67,3.22,1.36,4.82,2.08l1.36.62L138.1,7q-4.77.39-9.52.87l-2.68.27-.56.07a1.67,1.67,0,0,0-.78.4,1.1,1.1,0,0,0-.4.4,1.74,1.74,0,0,0-.39.75l-.07.55.07.56a1.67,1.67,0,0,0,.4.78,1.58,1.58,0,0,0,.63.57c.3.21.61.42.9.64l-.45-.34a16.85,16.85,0,0,1,3.19,3.18l-.36-.47,0,0,1.34-3.2a21.41,21.41,0,0,0-4.79,1.66,2.1,2.1,0,0,0-.81.81,1.71,1.71,0,0,0-.25.79,1.71,1.71,0,0,0,0,.84,2.23,2.23,0,0,0,.58,1l2.3,1.78.45-3.45-.28.12.54-.22a7.64,7.64,0,0,1-1.93.51l.56-.07a8,8,0,0,1-1.2,0,2.16,2.16,0,0,0-1.91,1.1,2.21,2.21,0,0,0,0,2.17l1.2,2.1a1.53,1.53,0,0,0,.58.63,2,2,0,0,0,1.57.43,1.62,1.62,0,0,0,.83-.26,2.19,2.19,0,0,0,1-1.3,2.29,2.29,0,0,0-.23-1.68Z"/><path class="cls-1" d="M128.55,27.78l2.08-1.17-3.21-1.35a3.57,3.57,0,0,0,.11.47,6.59,6.59,0,0,0,.4.95,2.84,2.84,0,0,0,.25.39,7.19,7.19,0,0,0,.66.8,5.74,5.74,0,0,0,.78.62,3,3,0,0,0,.42.26,4.7,4.7,0,0,0,1.92.54c.4.05.81,0,1.22.09l-.56-.08a1.91,1.91,0,0,1,.47.12l-.52-.22a1.46,1.46,0,0,1,.3.17l-.45-.34a1.6,1.6,0,0,1,.26.26l-.36-.46a1,1,0,0,1,.13.22l-.22-.54a.79.79,0,0,1,.06.22l-.07-.56a.61.61,0,0,1,0,.19l.08-.55,0,.13.21-.51,0,.05-.22.52a1.67,1.67,0,0,0,0,.83,1.09,1.09,0,0,0,.15.56,1.71,1.71,0,0,0,.47.74l.45.34.52.21a2.45,2.45,0,0,0,1.66-.21l3.17-1.64-3.2-1.35,1.41,4.64,1.41,4.68.79,2.62.22.55.36.47.45.34a1.75,1.75,0,0,0,.8.25,1.06,1.06,0,0,0,.56,0,1.08,1.08,0,0,0,.55-.15,1.13,1.13,0,0,0,.51-.29A1.58,1.58,0,0,0,143,40c.71-1.44,1.37-2.91,2-4.39.68-1.63,1.34-3.28,1.94-4.95.53-1.51,1-3,1.5-4.58s.89-3.09,1.25-4.62.71-3.14,1-4.72l.11-.59a1.71,1.71,0,0,0,0-.84,2,2,0,0,0-.84-1.46,1.76,1.76,0,0,0-.74-.39,2.19,2.19,0,0,0-1.66.22l-.47.36a2.16,2.16,0,0,0-.56,1c-.44,2.47-1,4.92-1.63,7.35s-1.4,4.83-2.25,7.2c-.48,1.32-1,2.63-1.52,3.94l.21-.52c-.68,1.64-1.41,3.27-2.18,4.87l4,.54-1.4-4.65L140.44,29l-.8-2.65a2.23,2.23,0,0,0-.58-1,2.46,2.46,0,0,0-1.52-.63,2.27,2.27,0,0,0-1.11.29l-3.17,1.64,3,3a3,3,0,0,0,.36-1.41,3.19,3.19,0,0,0-.37-1.42,3.53,3.53,0,0,0-.56-.77l-.16-.15a6,6,0,0,0-.59-.44A4.31,4.31,0,0,0,133,25c-.35,0-.7,0-1.06-.07l.56.08a2.73,2.73,0,0,1-.68-.18l.52.21a2.82,2.82,0,0,1-.63-.37l.45.35a3.45,3.45,0,0,1-.54-.54l.36.46a2.7,2.7,0,0,1-.38-.66l.22.55a2.74,2.74,0,0,1-.17-.64,2.23,2.23,0,0,0-.58-1,2.46,2.46,0,0,0-1.52-.63,2.27,2.27,0,0,0-1.11.29L126.37,24a2.19,2.19,0,0,0-.81,3,2.2,2.2,0,0,0,1.33,1,2.29,2.29,0,0,0,1.66-.21Z"/><path class="cls-1" d="M121.13,27,119,28.27a2.26,2.26,0,0,0-.84.84,2.54,2.54,0,0,0-.23,1.69,2.37,2.37,0,0,0,.6,1,2.48,2.48,0,0,1,.48.49l-.37-.49a2.86,2.86,0,0,1,.39.68l-.23-.57a3.36,3.36,0,0,1,.2.77l-.07-.58a3.06,3.06,0,0,1,0,.74l.08-.57a3.05,3.05,0,0,1-.17.66l.22-.54c-.15.34-.34.66-.5,1a4.68,4.68,0,0,0-.55,2,3.54,3.54,0,0,0,.53,1.9,3.28,3.28,0,0,0,1.07,1.06,3.11,3.11,0,0,0,1.43.41l-1.11-4.21-3.11,2a2.26,2.26,0,0,0-.84.84,2.6,2.6,0,0,0-.2,1.69,2.28,2.28,0,0,0,.6,1l3.41,3.66,3.43,3.68,1.92,2.07,1.61-3.86c-1.88-.14-3.75-.33-5.61-.59l.58.08q-3.85-.54-7.63-1.38t-7.46-2c-1.38-.43-2.75-.9-4.1-1.4a2.76,2.76,0,0,0-1.72.24,1.68,1.68,0,0,0-.66.61,1.8,1.8,0,0,0-.4.76,2.31,2.31,0,0,0,.22,1.71l.37.48a2.28,2.28,0,0,0,1,.57c1.56.57,3.13,1.09,4.71,1.58s3.18.92,4.79,1.32,3.23.75,4.86,1.06c1.8.35,3.61.63,5.43.88,1.64.22,3.29.4,4.94.54l.63,0,.58-.08.56-.23.48-.37a1.59,1.59,0,0,0,.47-.72,2.19,2.19,0,0,0,.15-1.13,1.13,1.13,0,0,0-.15-.57,1.6,1.6,0,0,0-.48-.76l-3.41-3.66L121.47,39l-1.93-2.07-.46,3.56,3.12-2,.48-.37a1.73,1.73,0,0,0,.45-.73,1.33,1.33,0,0,0,.15-.55,1.65,1.65,0,0,0,0-.88l-.22-.56-.37-.48a2.57,2.57,0,0,0-1.58-.65H121l.6.1a.48.48,0,0,1-.17-.05l.53.22-.15-.09.47.36a.91.91,0,0,1-.17-.17l.37.48a1,1,0,0,1-.14-.24l.22.56a1.2,1.2,0,0,1-.1-.37l.07.56a1.29,1.29,0,0,1,0-.34l-.08.57a1.9,1.9,0,0,1,.14-.48l-.22.53c.14-.34.34-.66.5-1a7.47,7.47,0,0,0,.4-1,7.14,7.14,0,0,0,.17-1,5,5,0,0,0-.12-1.54,3.47,3.47,0,0,0-.13-.46,6.61,6.61,0,0,0-.43-1,6.44,6.44,0,0,0-.65-.9,3.11,3.11,0,0,0-.41-.4l-.46,3.57,2.13-1.26a2.31,2.31,0,0,0,1.05-1.36,1.58,1.58,0,0,0,0-.86,1.73,1.73,0,0,0-.26-.86,2.26,2.26,0,0,0-3.08-.83Z"/><path class="cls-1" d="M121.93,16.42a2.52,2.52,0,0,0-.12-.29l-.12-.29-.35-.61c-.13,0-.15,0-.17,0l-.24-.18a2.7,2.7,0,0,0-.25-.18l0,0,0,0h0l-.52-.22h0l-.08,0-.29,0-.3,0h0l0,0,.05,0-.56.06,0,0,2.11,3.69.49-.44a1.65,1.65,0,0,0,.46-.72,2,2,0,0,0,0-1.67,1.74,1.74,0,0,0-.47-.75l-.46-.34a2.27,2.27,0,0,0-1.08-.29l-.57.07a2.15,2.15,0,0,0-1,.59l-.49.43-.34.45a1.67,1.67,0,0,0-.25.81,1,1,0,0,0,0,.57,1.6,1.6,0,0,0,.26.83l.37.48.45.34a1.64,1.64,0,0,0,.8.25,1.67,1.67,0,0,0,.86,0h0l-.57.06h.11l-.56-.08.1,0-.53-.21a.31.31,0,0,1,.1.05l-.45-.34.08.08-.36-.47a.41.41,0,0,1,0,.09l-.22-.55h0a1.6,1.6,0,0,0,.41.78,2,2,0,0,0,1.44.84,1.6,1.6,0,0,0,.84,0l.55-.22a2.11,2.11,0,0,0,.78-.79l.21-.52a2.17,2.17,0,0,0,0-1.13Z"/></g></g></g></g><text class="cls-2" transform="translate(0 74.52)">Spider</text></g></g></svg>