<svg xmlns="http://www.w3.org/2000/svg" viewBox="0 0 59.36 47.48"><defs><style>.cls-1{fill:#dd5959;stroke:#dd5959;stroke-miterlimit:10;}</style></defs><g id="Layer_2" data-name="Layer 2"><g id="Layer_1-2" data-name="Layer 1"><g id="Layer_2-2-2" data-name="Layer 2-2-2"><g id="Layer_1-2-2-2" data-name="Layer 1-2-2-2"><path class="cls-1" d="M29,20.45,28.94,18A2.29,2.29,0,0,0,27.78,16a2.26,2.26,0,0,0-2.3,0,7.2,7.2,0,0,1-1.09.6l.54-.23A8.79,8.79,0,0,1,23,17l.59-.1-.3,0,2.25,2.81,1.08-2.83a2.4,2.4,0,0,0-.05-1.16,1.64,1.64,0,0,0-.43-.77,1.67,1.67,0,0,0-.64-.57,2.3,2.3,0,0,0-1.15-.28,22.76,22.76,0,0,0-5.15,1.11l2.93,2.1h0l-.07.6a17.83,17.83,0,0,1,1.12-4.55L23,14c.17-.32.29-.68.44-1l.21-.55a1.62,1.62,0,0,0,0-.9,1,1,0,0,0-.17-.54,1.72,1.72,0,0,0-.49-.72l-.47-.36L22,9.66a1.66,1.66,0,0,0-.91,0,1.56,1.56,0,0,0-.83.28c-3,1.41-5.94,2.85-8.88,4.29L8.88,15.47l3.17,3Q13.6,16.2,15.18,14l.91-1.25-.34.47q2.59-3.54,5.34-6.9c.51-.65,1-1.28,1.56-1.91a1.76,1.76,0,0,0,.42-.77,2,2,0,0,0,0-1.73,1.72,1.72,0,0,0-.49-.72A2.25,2.25,0,0,0,20.91.55L20.3.64a2.36,2.36,0,0,0-1,.61Q17,4,14.88,6.81c-1.55,2-3.07,4.08-4.53,6.16-.77,1.09-1.53,2.2-2.28,3.31l-.22.55a1.62,1.62,0,0,0,0,.9A1,1,0,0,0,8,18.3a1.75,1.75,0,0,0,.49.71l.46.35.54.21a1.76,1.76,0,0,0,.91,0,1.68,1.68,0,0,0,.83-.28c3-1.48,5.92-2.94,8.88-4.35l2.52-1.2-3.17-3a20.16,20.16,0,0,0-1.6,4.91c-.12.62-.18,1.23-.24,1.86A2.26,2.26,0,0,0,18,18.63a2.37,2.37,0,0,0,1.38,1,2.44,2.44,0,0,0,1.17-.05,20,20,0,0,1,3.43-.87l-.6.1c.37-.07.73-.11,1.1-.15l-2.26-2.8-1.09,2.82a2.26,2.26,0,0,0,0,1.21,1.72,1.72,0,0,0,.43.75,1.6,1.6,0,0,0,.64.57,2.3,2.3,0,0,0,1.15.28A10.59,10.59,0,0,0,25.7,21,13,13,0,0,0,27,20.38a7,7,0,0,0,.84-.48L24.4,18l.1,2.51a1.62,1.62,0,0,0,.22.86,1.59,1.59,0,0,0,.47.72,2.55,2.55,0,0,0,1.62.62A2.33,2.33,0,0,0,28.4,22,2.37,2.37,0,0,0,29,20.42Z"/><path class="cls-1" d="M36.58,20l0-2.43-3.24,2a9.82,9.82,0,0,0,4.45,1.27,2.24,2.24,0,0,0,1.1-.33,1.84,1.84,0,0,0,.6-.58,1.67,1.67,0,0,0,.4-.74,2.24,2.24,0,0,0,0-1.15l-1.16-2.64-2,2.82c.37,0,.73,0,1.09.08l-.58-.07a18.94,18.94,0,0,1,3.32.66,2.28,2.28,0,0,0,1.16,0,2.46,2.46,0,0,0,1.27-1,2.29,2.29,0,0,0,.28-1.11,20.35,20.35,0,0,0-.6-2.68,17,17,0,0,0-.77-2.1c-.24-.55-.53-1.13-.78-1.64l-2.91,3.07c3,1.22,5.89,2.46,8.82,3.73l2.46,1.07.53.21a1.75,1.75,0,0,0,.88,0,1.17,1.17,0,0,0,.54-.16,1.69,1.69,0,0,0,.7-.48l.32-.45.21-.52a1.64,1.64,0,0,0,0-.88,1.53,1.53,0,0,0-.29-.8c-1.48-1.94-3-3.9-4.57-5.83-1.46-1.78-2.93-3.53-4.45-5.25C42.4,3,41.54,2,40.65,1.06a1.64,1.64,0,0,0-.72-.39,1.94,1.94,0,0,0-1.68,0,1.64,1.64,0,0,0-.69.47A2.16,2.16,0,0,0,37,2.74l.09.58a2.19,2.19,0,0,0,.62,1c1.9,2.08,3.77,4.19,5.58,6.35.52.61,1,1.22,1.53,1.85l-.36-.43q1.65,2,3.25,4.12l.9,1.19,2.91-3.13q-4.38-1.92-8.79-3.76l-2.48-1-.53-.2a1.55,1.55,0,0,0-.88,0,1.06,1.06,0,0,0-.54.16,1.77,1.77,0,0,0-.7.47l-.32.45-.21.53a1.71,1.71,0,0,0,0,.87,1.59,1.59,0,0,0,.29.81c.16.32.33.66.48,1L37.55,13a16.8,16.8,0,0,1,1.29,4.32l-.09-.59h0l2.7-2.17a21.23,21.23,0,0,0-5-.82,2.13,2.13,0,0,0-1.1.32,1.72,1.72,0,0,0-.59.58,1.63,1.63,0,0,0-.4.74,2.28,2.28,0,0,0,0,1.16l1.18,2.66,2-2.83-.3,0,.58.06a7.64,7.64,0,0,1-1.94-.47l.53.21a8.36,8.36,0,0,1-1.06-.58,2.17,2.17,0,0,0-2.2.06,2.23,2.23,0,0,0-1,1.91l.06,2.42a1.51,1.51,0,0,0,.21.83,2,2,0,0,0,1.18,1.13,1.56,1.56,0,0,0,.85.16,2.18,2.18,0,0,0,1.5-.67,2.31,2.31,0,0,0,.6-1.58Z"/><path class="cls-1" d="M33.19,28l2.39,0L33.4,25.21a3.62,3.62,0,0,0-.13.47,7,7,0,0,0-.1,1,2.49,2.49,0,0,0,0,.47,5.82,5.82,0,0,0,.2,1,5,5,0,0,0,.39.92,3.62,3.62,0,0,0,.24.43,4.86,4.86,0,0,0,1.43,1.39,9.44,9.44,0,0,1,1,.66l-.45-.34a1.86,1.86,0,0,1,.36.33l-.36-.44a1.32,1.32,0,0,1,.19.29L36,30.91a1.42,1.42,0,0,1,.11.35l-.1-.58a1.13,1.13,0,0,1,0,.26l.06-.58a.59.59,0,0,1,0,.22l.21-.52-.09.16.33-.44-.06.11.42-.35,0,.05-.44.35a1.75,1.75,0,0,0-.4.73,1.1,1.1,0,0,0-.13.56,1.65,1.65,0,0,0,.06.88l.23.51.36.43a2.44,2.44,0,0,0,1.56.61l3.57.06L39.46,31l-1,4.76-1,4.78L37,43.23l-.07.59.1.59.23.51a1.88,1.88,0,0,0,.59.6,1.07,1.07,0,0,0,.49.27,2.18,2.18,0,0,0,1.14.11,1.61,1.61,0,0,0,.66-.31c1.31-.93,2.59-1.91,3.85-2.91s2.74-2.25,4.06-3.43,2.31-2.16,3.5-3.32,2.25-2.29,3.29-3.47,2.12-2.42,3.13-3.67l.38-.47a1.72,1.72,0,0,0,.4-.74,2,2,0,0,0-.05-1.68,1.71,1.71,0,0,0-.46-.7,2.21,2.21,0,0,0-1.57-.59L56,24.7a2.2,2.2,0,0,0-1,.61c-1.56,2-3.22,3.86-4.93,5.69s-3.53,3.59-5.41,5.27c-1,.93-2.13,1.83-3.21,2.74l.44-.36c-1.38,1.12-2.8,2.21-4.24,3.25L41,44.28l1-4.76,1.11-4.82L43.63,32a2.14,2.14,0,0,0,0-1.15,2.45,2.45,0,0,0-1-1.28,2.32,2.32,0,0,0-1.12-.27l-3.57-.07,1.22,4.07a3,3,0,0,0,1-1.07,3.08,3.08,0,0,0,.35-1.43,3.79,3.79,0,0,0-.12-.94l-.07-.21a6.67,6.67,0,0,0-.31-.66,4.32,4.32,0,0,0-1.49-1.33,5.68,5.68,0,0,1-.9-.57l.46.34a2.65,2.65,0,0,1-.52-.48l.36.43a2.85,2.85,0,0,1-.38-.63l.23.53a3.71,3.71,0,0,1-.22-.74l.1.58a2.77,2.77,0,0,1,0-.76l-.07.59a2.94,2.94,0,0,1,.16-.65,2.14,2.14,0,0,0,0-1.15,2.46,2.46,0,0,0-1-1.28,2.32,2.32,0,0,0-1.12-.27l-2.37,0a2.2,2.2,0,0,0-2.14,2.24v0A2.22,2.22,0,0,0,33.19,28Z"/><path class="cls-1" d="M27,23.75l-2.48.1a2.3,2.3,0,0,0-1.14.34,2.53,2.53,0,0,0-1,1.38,2.28,2.28,0,0,0,0,1.16,3.1,3.1,0,0,1,.19.66l-.1-.6a2.55,2.55,0,0,1,0,.78l.07-.61a3,3,0,0,1-.19.77l.22-.54a2.76,2.76,0,0,1-.36.65l.35-.46a3.17,3.17,0,0,1-.47.5l.45-.37c-.29.22-.61.41-.91.64a4.49,4.49,0,0,0-1.44,1.5,3.65,3.65,0,0,0-.44,1.92A3.46,3.46,0,0,0,20.3,33a3.19,3.19,0,0,0,1.06,1l1-4.23-3.69.28a2.26,2.26,0,0,0-1.13.34,2.56,2.56,0,0,0-1,1.39A2.17,2.17,0,0,0,16.64,33l1.26,4.85,1.26,4.87.71,2.73,3.25-2.63c-1.59-1-3.14-2.07-4.66-3.19l.48.35c-2.09-1.54-4.11-3.15-6.06-4.85s-3.82-3.46-5.61-5.3q-1.51-1.56-2.94-3.19A2.74,2.74,0,0,0,2.7,26a1.68,1.68,0,0,0-.87.22,1.79,1.79,0,0,0-.71.48A2.27,2.27,0,0,0,.5,28.34l.1.6a2.17,2.17,0,0,0,.61,1c1.1,1.25,2.23,2.45,3.39,3.63S7,35.86,8.18,37s2.49,2.2,3.77,3.25,2.88,2.27,4.36,3.35S19,45.5,20.4,46.41l.55.3.55.2.6.07.6-.1a1.49,1.49,0,0,0,.76-.41,2.2,2.2,0,0,0,.67-.92,1.26,1.26,0,0,0,.14-.57,1.63,1.63,0,0,0-.07-.9L23,39.24l-1.32-4.77-.71-2.74-2.1,2.91,3.69-.27.6-.1a1.72,1.72,0,0,0,.74-.43,1.42,1.42,0,0,0,.4-.41,1.8,1.8,0,0,0,.42-.78l.07-.59-.1-.6a2.62,2.62,0,0,0-1.08-1.33l-.09-.05.48.38a.53.53,0,0,1-.13-.13l.36.45-.09-.15.24.54a1,1,0,0,1-.06-.23l.09.59a1.22,1.22,0,0,1,0-.27l-.07.59a1.25,1.25,0,0,1,.09-.37l-.21.53a1.11,1.11,0,0,1,.17-.3l-.35.46a2,2,0,0,1,.36-.35l-.45.36c.28-.24.61-.42.92-.64a7.68,7.68,0,0,0,.82-.69,7.9,7.9,0,0,0,.63-.8,5.25,5.25,0,0,0,.63-1.41,3.94,3.94,0,0,0,.1-.47,7.89,7.89,0,0,0,.1-1.09,6.92,6.92,0,0,0-.15-1.1,2.6,2.6,0,0,0-.17-.54l-2.1,2.92,2.47-.1a2.3,2.3,0,0,0,1.57-.69,1.49,1.49,0,0,0,.41-.76,1.68,1.68,0,0,0,.18-.88A2.26,2.26,0,0,0,27,23.73Z"/><path class="cls-1" d="M32.78,14.82l0-.31,0-.31,0-.7-.15-.08-.12-.28c0-.09-.09-.18-.14-.27h0l-.35-.44h0l-.07,0-.25-.14-.27-.14h0l.05,0L31,11.92h0l.1,4.25.64-.16a1.63,1.63,0,0,0,.75-.41,2,2,0,0,0,.8-1.47,1.87,1.87,0,0,0-.06-.88L33,12.73a2.24,2.24,0,0,0-.82-.77l-.53-.21a2.18,2.18,0,0,0-1.16,0l-.64.15-.51.23a1.57,1.57,0,0,0-.6.6,1,1,0,0,0-.28.5,1.56,1.56,0,0,0-.16.85l.1.6.23.51a1.59,1.59,0,0,0,.58.6,1.77,1.77,0,0,0,.76.41h0L29.42,16l.1.06-.46-.34.09,0-.36-.44.06.09-.23-.51,0,.11-.1-.59a.2.2,0,0,1,0,.08l.07-.59h0a1.55,1.55,0,0,0,0,.88,2,2,0,0,0,.87,1.43,1.67,1.67,0,0,0,.74.4l.58.07a2.24,2.24,0,0,0,1.07-.33l.43-.36a2.19,2.19,0,0,0,.54-1Z"/></g></g></g></g></svg>