<?xml version="1.0" encoding="utf-8"?>
<!-- Generator: Adobe Illustrator 24.1.0, SVG Export Plug-In . SVG Version: 6.00 Build 0)  -->
<svg version="1.1" id="Layer_1" xmlns="http://www.w3.org/2000/svg" xmlns:xlink="http://www.w3.org/1999/xlink" x="0px" y="0px"
	 viewBox="0 0 1200 2000" style="enable-background:new 0 0 1200 2000;" xml:space="preserve">
<style type="text/css">
	.st0{fill:#CCCCCC;}
	.st1{fill:#1A1A1A;}
	.st2{fill:#00A99D;}
	.st3{fill:#008275;}
	.st4{clip-path:url(#SVGID_2_);fill:#006054;}
	.st5{fill:#333333;stroke:#000000;stroke-miterlimit:10;}
	.st6{fill:#DDDDDD;}
	.st7{clip-path:url(#SVGID_4_);fill:#00A99D;}
	.st8{font-family:'HalloweenSpider';}
	.st9{font-size:345.1556px;}
	.st10{clip-path:url(#SVGID_6_);fill:#E6E6E6;stroke:#000000;stroke-miterlimit:10;}
	.st11{fill:#DD5959;stroke:#DD5959;stroke-miterlimit:10;}
	.st12{clip-path:url(#SVGID_8_);fill:#009183;}
</style>
<path class="st0" d="M155.5,858.1c2.6,117.4,2.3,219.4,1,302c-1.2,75.2-2.8,169.8-10.5,294.5c-6.1,99.4-14,184.3-21,250
	c-17.4,131.2,85.1,235.5,183,233c94.6-2.4,189.2-104.7,173-231c-8.3-81-17.5-187.6-23-313c-1.8-39.7-5.5-135-5-295
	c0.4-133.9,3.9-311.8,16-525c7.7-99.7,15.3-199.3,23-299c11-112.6-74.2-207.2-171-212c-102.8-5.1-200.9,91.9-190,212
	c5,100.6,9.6,182.8,13,241c4.8,81.3,10.4,154.1,11,258C155.2,801.7,155.3,829.9,155.5,858.1z"/>
<g>
	<ellipse class="st1" cx="299" cy="455.1" rx="10.5" ry="11.2"/>
	<ellipse class="st1" cx="329.5" cy="455.1" rx="10.5" ry="11.2"/>
	<ellipse class="st1" cx="329.5" cy="487" rx="10.5" ry="11.2"/>
	<ellipse class="st1" cx="299" cy="487" rx="10.5" ry="11.2"/>
	<ellipse class="st1" cx="299" cy="518.9" rx="10.5" ry="11.2"/>
	<ellipse class="st1" cx="329.5" cy="518.9" rx="10.5" ry="11.2"/>
</g>
<path class="st2" d="M454.3,1106.3l-149.1-106.1l-149.1,106.1c1.1,30.8,2.1,62.3,3,94.4c-1.1,38.7-2.3,76.5-3.6,113.3l149.8-119.2
	L455,1314c-1.3-36.7-2.5-74.6-3.6-113.3C452.3,1168.6,453.3,1137.1,454.3,1106.3z"/>
<path class="st3" d="M454.3,891.2L305.2,804l-149.1,87.2c1.1,25.3,2.1,51.2,3,77.6c-1.1,31.8-2.3,62.9-3.6,93l149.8-97.9l149.8,97.9
	c-1.3-30.2-2.5-61.3-3.6-93C452.3,942.4,453.3,916.5,454.3,891.2z"/>
<g>
	<defs>
		<path id="SVGID_1_" d="M484.2,690.2L307.5,603l-176.7,87.2c1.3,25.3,2.4,51.2,3.5,77.6c-1.3,31.8-2.8,62.9-4.3,93l177.5-97.9
			L485,860.8c-1.6-30.2-3-61.3-4.3-93C481.8,741.4,483,715.5,484.2,690.2z"/>
	</defs>
	<clipPath id="SVGID_2_">
		<use xlink:href="#SVGID_1_"  style="overflow:visible;"/>
	</clipPath>
	<path class="st4" d="M159.6,998c2.5,117.4,2.2,219.4,1,302c-1.2,75.2-2.7,169.8-10.1,294.5c-5.9,99.4-13.5,184.3-20.2,250
		c-16.8,131.2,81.9,235.5,176.3,233c91.1-2.4,182.3-104.7,166.6-231c-8-81-16.8-187.6-22.2-313c-1.7-39.7-5.3-135-4.8-295
		c0.4-133.9,3.7-311.8,15.4-525c7.4-99.7,14.8-199.3,22.2-299c10.6-112.6-71.5-207.2-164.7-212c-99-5.1-193.5,91.9-183,212
		c4.8,100.6,9.2,182.8,12.5,241c4.6,81.3,10,154.1,10.6,258C159.3,941.6,159.5,969.8,159.6,998z"/>
</g>
<path class="st5" d="M706.5,858.1c2.6,117.4,2.3,219.4,1,302c-1.2,75.2-2.8,169.8-10.5,294.5c-6.1,99.4-14,184.3-21,250
	c-17.4,131.2,85.1,235.5,183,233c94.6-2.4,189.2-104.7,173-231c-8.3-81-17.5-187.6-23-313c-1.8-39.7-5.5-135-5-295
	c0.4-133.9,3.9-311.8,16-525c7.7-99.7,15.3-199.3,23-299c11-112.6-74.2-207.2-171-212c-102.8-5.1-200.9,91.9-190,212
	c5,100.6,9.6,182.8,13,241c4.8,81.3,10.4,154.1,11,258C706.2,801.7,706.3,829.9,706.5,858.1z"/>
<ellipse class="st6" cx="844" cy="390.2" rx="10.5" ry="11.2"/>
<g>
	<defs>
		<path id="SVGID_3_" d="M155.2,857.6c2.6,117.4,2.3,219.4,1,302c-1.2,75.2-2.8,169.8-10.5,294.5c-6.1,99.4-14,184.3-21,250
			c-17.4,131.2,85.1,235.5,183,233c94.6-2.4,189.2-104.7,173-231c-8.3-81-17.5-187.6-23-313c-1.8-39.7-5.5-135-5-295
			c0.4-133.9,3.9-311.8,16-525c7.7-99.7,15.3-199.3,23-299c11-112.6-74.2-207.2-171-212C218,57,119.8,154,130.7,274.1
			c5,100.6,9.6,182.8,13,241c4.8,81.3,10.4,154.1,11,258C154.9,801.3,155,829.5,155.2,857.6z"/>
	</defs>
	<clipPath id="SVGID_4_">
		<use xlink:href="#SVGID_3_"  style="overflow:visible;"/>
	</clipPath>
	<path class="st7" d="M512,1760.5c79,79.2-90.7,202.5-202.5,202.5S27.8,1839.5,107,1760.5c203-202.5,0,0.5,202.5-202.5
		C309.9,1557.6,310,1558,512,1760.5z"/>
</g>
<ellipse class="st6" cx="874.5" cy="390.2" rx="10.5" ry="11.2"/>
<ellipse class="st6" cx="874.5" cy="422.1" rx="10.5" ry="11.2"/>
<ellipse class="st6" cx="844" cy="422.1" rx="10.5" ry="11.2"/>
<ellipse class="st6" cx="844" cy="454" rx="10.5" ry="11.2"/>
<g>
	<ellipse class="st1" cx="299" cy="1383.1" rx="10.5" ry="11.2"/>
	<ellipse class="st1" cx="329.5" cy="1383.1" rx="10.5" ry="11.2"/>
	<ellipse class="st1" cx="329.5" cy="1415" rx="10.5" ry="11.2"/>
	<ellipse class="st1" cx="299" cy="1415" rx="10.5" ry="11.2"/>
	<ellipse class="st1" cx="299" cy="1446.9" rx="10.5" ry="11.2"/>
	<ellipse class="st1" cx="329.5" cy="1446.9" rx="10.5" ry="11.2"/>
</g>
<ellipse class="st6" cx="874.5" cy="454" rx="10.5" ry="11.2"/>
<ellipse class="st6" cx="844" cy="1547" rx="10.5" ry="11.2"/>
<ellipse class="st6" cx="874.5" cy="1547" rx="10.5" ry="11.2"/>
<ellipse class="st6" cx="874.5" cy="1578.9" rx="10.5" ry="11.2"/>
<ellipse class="st6" cx="844" cy="1578.9" rx="10.5" ry="11.2"/>
<ellipse class="st6" cx="844" cy="1610.8" rx="10.5" ry="11.2"/>
<ellipse class="st6" cx="874.5" cy="1610.8" rx="10.5" ry="11.2"/>
<g>
	<defs>
		<text id="SVGID_5_" transform="matrix(0 1 -1 0 784.3921 366.645)" class="st8 st9">SPIDER</text>
	</defs>
	<clipPath id="SVGID_6_">
		<use xlink:href="#SVGID_5_"  style="overflow:visible;"/>
	</clipPath>
	<path class="st10" d="M706.5,857.8c2.6,117.4,2.3,219.4,1,302c-1.2,75.2-2.8,169.8-10.5,294.5c-6.1,99.4-14,184.3-21,250
		c-17.4,131.2,85.1,235.5,183,233c94.6-2.4,189.2-104.7,173-231c-8.3-81-17.5-187.6-23-313c-1.8-39.7-5.5-135-5-295
		c0.4-133.9,3.9-311.8,16-525c7.7-99.7,15.3-199.3,23-299c11-112.6-74.2-207.2-171-212c-102.8-5.1-200.9,91.9-190,212
		c5,100.6,9.6,182.8,13,241c4.8,81.3,10.4,154.1,11,258C706.1,801.5,706.3,829.6,706.5,857.8z"/>
</g>
<g id="Layer_2-2-2">
	<g id="Layer_1-2-2-2">
		<path class="st11" d="M850,1755.5l-0.3-9.6c-0.1-3.1-1.8-5.9-4.5-7.4c-2.8-1.6-6.2-1.5-8.9,0.2c-1.3,0.9-2.7,1.7-4.2,2.3l2.1-0.9
			c-2.4,1-4.9,1.8-7.5,2.2l2.3-0.4l-1.2,0.2l8.7,10.9l4.2-10.9c0.3-1.5,0.3-3-0.2-4.5c-0.3-1.1-0.8-2.2-1.6-3
			c-0.6-0.9-1.5-1.7-2.5-2.2c-1.4-0.7-2.9-1.1-4.5-1.1c-6.8,0.6-13.4,2.1-19.9,4.3l11.3,8.1l0,0l-0.2,2.3c0.7-6,2.1-11.9,4.3-17.6
			l-0.8,2.1c0.7-1.2,1.1-2.6,1.7-3.9l0.8-2.1c0.4-1.1,0.4-2.3,0.1-3.5c0-0.8-0.2-1.5-0.7-2.1c-0.4-1.1-1-2-1.9-2.8l-1.8-1.4
			l-1.9-0.8c-1.1-0.3-2.3-0.3-3.5,0c-1.1,0.1-2.3,0.4-3.2,1.1c-11.5,5.5-22.9,11-34.3,16.6l-9.7,4.8l12.2,11.6
			c4-5.8,8-11.6,12.1-17.4l3.5-4.8l-1.3,1.8c6.7-9.1,13.5-18,20.6-26.6c2-2.5,4-4.9,6-7.4c0.8-0.8,1.3-1.9,1.6-3
			c1-2.1,0.9-4.6-0.2-6.7c-0.4-1.1-1-2-1.9-2.8c-1.7-1.6-4-2.5-6.3-2.4l-2.3,0.4c-1.4,0.4-2.7,1.3-3.7,2.4
			c-5.9,7.1-11.6,14.2-17.2,21.4c-6,7.8-11.9,15.8-17.5,23.8c-3,4.2-5.9,8.5-8.8,12.8l-0.8,2.1c-0.3,1.1-0.4,2.3,0,3.5
			c0,0.8,0.2,1.5,0.6,2.2c0.4,1.1,1,2,1.9,2.8l1.8,1.3l2.1,0.8c1.1,0.3,2.3,0.3,3.5,0c1.1-0.1,2.3-0.4,3.2-1.1
			c11.4-5.7,22.8-11.3,34.3-16.8l9.7-4.6l-12.2-11.7c-2.9,6-4.9,12.4-6.2,19c-0.5,2.4-0.7,4.8-0.9,7.2c0,1.6,0.5,3.1,1.3,4.4
			c1.3,1.9,3.2,3.3,5.3,3.9c1.5,0.3,3,0.2,4.5-0.2c4.3-1.5,8.8-2.6,13.3-3.4l-2.3,0.4c1.4-0.2,2.8-0.4,4.2-0.6l-8.7-10.8l-4.2,10.9
			c-0.4,1.5-0.4,3.2,0.1,4.7c0.3,1.1,0.8,2.1,1.6,2.9c0.6,0.9,1.5,1.7,2.5,2.2c1.3,0.8,2.9,1.1,4.4,1.1c3.1-0.3,6.2-1,9.1-2
			c1.7-0.7,3.4-1.4,5.1-2.3c1.1-0.6,2.2-1.2,3.3-1.9l-13.3-7.2l0.4,9.7c0,1.2,0.3,2.3,0.8,3.3c0.4,1.1,1,2,1.8,2.8
			c1.7,1.5,3.9,2.4,6.2,2.4c2.3-0.1,4.5-1,6.1-2.7c1.5-1.7,2.4-4,2.4-6.3L850,1755.5z"/>
		<path class="st11" d="M879.2,1753.6l-0.2-9.4l-12.5,7.6c5.2,3,11.1,4.7,17.2,4.9c1.5,0,3-0.5,4.2-1.3c0.9-0.6,1.7-1.3,2.3-2.2
			c0.8-0.8,1.3-1.8,1.5-2.9c0.3-1.5,0.3-3-0.1-4.5l-4.5-10.2l-7.9,10.9c1.4,0.1,2.8,0.2,4.2,0.3l-2.3-0.3c4.3,0.5,8.6,1.3,12.8,2.6
			c1.5,0.3,3,0.3,4.5-0.1c2.1-0.7,3.8-2.1,4.9-4c0.7-1.3,1.1-2.8,1.1-4.3c-0.5-3.5-1.3-6.9-2.3-10.3c-0.8-2.8-1.8-5.5-3-8.1
			c-0.9-2.1-2-4.3-3-6.3l-11.2,11.8c11.4,4.7,22.7,9.5,34,14.4l9.5,4.1l2,0.8c1.1,0.3,2.3,0.4,3.4,0.1c0.7,0,1.5-0.2,2.1-0.6
			c1-0.4,2-1,2.7-1.8l1.2-1.7l0.8-2c0.3-1.1,0.3-2.3,0-3.4c-0.1-1.1-0.5-2.2-1.1-3.1c-5.7-7.5-11.6-15.1-17.6-22.5
			c-5.6-6.9-11.3-13.6-17.2-20.3c-3.3-3.7-6.7-7.5-10.1-11.1c-0.8-0.7-1.7-1.3-2.8-1.5c-2.1-0.9-4.5-0.9-6.5,0.1
			c-1,0.4-1.9,1-2.6,1.8c-1.5,1.6-2.4,3.8-2.3,6l0.4,2.3c0.5,1.4,1.3,2.7,2.4,3.7c7.3,8,14.6,16.2,21.5,24.5c2,2.3,3.9,4.7,5.9,7.1
			l-1.4-1.7c4.3,5.3,8.4,10.5,12.5,15.9l3.5,4.6l11.2-12.1c-11.3-5-22.6-9.8-33.9-14.5l-9.6-4l-2-0.8c-1.1-0.3-2.3-0.4-3.4-0.1
			c-0.7,0-1.5,0.2-2.1,0.6c-1,0.4-2,1-2.7,1.8l-1.2,1.7l-0.8,2c-0.3,1.1-0.4,2.3-0.1,3.4c0.1,1.1,0.5,2.2,1.1,3.1
			c0.6,1.3,1.3,2.5,1.9,3.8l-0.9-2c2.4,5.3,4.1,10.9,5,16.7l-0.4-2.3l0,0l10.4-8.4c-6.3-1.8-12.8-2.9-19.3-3.2c-1.5,0-3,0.5-4.2,1.3
			c-0.9,0.5-1.7,1.3-2.3,2.2c-0.7,0.8-1.3,1.8-1.5,2.9c-0.3,1.5-0.3,3,0.1,4.5l4.5,10.3l7.9-10.9l-1.2-0.1l2.2,0.2
			c-2.6-0.3-5.1-0.9-7.5-1.8l2,0.8c-1.4-0.6-2.8-1.4-4.1-2.2c-2.7-1.5-5.9-1.4-8.5,0.2c-2.5,1.6-4,4.4-4,7.4l0.2,9.3
			c0,1.1,0.2,2.2,0.8,3.2c0.8,2,2.5,3.6,4.5,4.3c1,0.5,2.2,0.7,3.3,0.6c2.2-0.1,4.3-1,5.8-2.6c1.5-1.7,2.3-3.9,2.3-6.1L879.2,1753.6
			z"/>
		<path class="st11" d="M866.1,1784.6l9.2-0.2l-8.4-10.5c-0.2,0.6-0.4,1.2-0.5,1.8c-0.2,1.3-0.4,2.6-0.4,4c0,0.6,0,1.2,0.1,1.8
			c0.2,1.3,0.4,2.6,0.8,3.9c0.4,1.2,0.9,2.4,1.5,3.5c0.3,0.6,0.6,1.1,0.9,1.7c1.4,2.2,3.3,4,5.5,5.4c1.3,0.9,2.8,1.5,4,2.5l-1.8-1.3
			c0.5,0.4,1,0.8,1.4,1.3l-1.4-1.7c0.3,0.3,0.5,0.7,0.7,1.1l-0.9-2c0.2,0.4,0.3,0.9,0.4,1.4l-0.4-2.2c0.1,0.3,0.1,0.7,0,1l0.2-2.2
			c0,0.3-0.1,0.6-0.2,0.9l0.8-2c-0.1,0.2-0.2,0.4-0.3,0.6l1.3-1.7l-0.2,0.4l1.6-1.3l-0.1,0.2l-1.7,1.4c-0.7,0.8-1.3,1.8-1.5,2.8
			c-0.4,0.7-0.5,1.4-0.5,2.2c-0.2,1.1-0.1,2.3,0.2,3.4l0.9,2l1.4,1.7c1.7,1.5,3.8,2.3,6,2.3l13.8,0.3l-8.4-10.5l-3.7,18.3l-3.8,18.5
			l-2.1,10.3l-0.3,2.3l0.4,2.3l0.9,2c0.6,0.9,1.3,1.7,2.3,2.3c0.5,0.5,1.2,0.9,1.9,1c0.7,0.4,1.4,0.5,2.1,0.5c0.7,0.2,1.5,0.2,2.3,0
			c0.9-0.2,1.8-0.6,2.5-1.2c5.1-3.6,10-7.4,14.9-11.2c5.3-4.3,10.6-8.7,15.7-13.2c4.6-4.2,8.9-8.3,13.5-12.8
			c4.6-4.4,8.7-8.9,12.7-13.4c4-4.5,8.2-9.4,12.1-14.2l1.5-1.8c0.7-0.8,1.3-1.8,1.5-2.9c0.9-2.1,0.8-4.5-0.2-6.5
			c-0.4-1-1-1.9-1.8-2.7c-1.6-1.5-3.8-2.4-6-2.3l-2.3,0.4c-1.4,0.4-2.7,1.3-3.7,2.4c-6,7.6-12.4,14.9-19,22
			c-6.6,7.1-13.6,13.8-20.9,20.3c-4.1,3.6-8.2,7.1-12.4,10.6l1.7-1.4c-5.3,4.3-10.8,8.5-16.3,12.5l12.6,9.2l3.8-18.4l4.3-18.6
			l2.2-10.5c0.3-1.5,0.3-3-0.1-4.5c-0.7-2.1-2.1-3.8-4-4.9c-1.3-0.7-2.8-1.1-4.3-1.1l-13.8-0.3l4.7,15.7c1.6-1,2.9-2.5,3.8-4.1
			c0.9-1.7,1.3-3.6,1.4-5.5c0-1.2-0.2-2.5-0.5-3.6l-0.3-0.8c-0.3-0.9-0.7-1.7-1.2-2.6c-1.5-2.1-3.5-3.9-5.7-5.1
			c-1.2-0.6-2.4-1.3-3.5-2.2l1.8,1.3c-0.7-0.5-1.4-1.2-2-1.9l1.4,1.7c-0.6-0.7-1.1-1.5-1.5-2.4l0.9,2c-0.4-0.9-0.7-1.9-0.8-2.8
			l0.4,2.2c-0.2-1-0.2-2-0.1-2.9l-0.3,2.3c0.1-0.8,0.3-1.7,0.6-2.5c0.3-1.5,0.3-3-0.1-4.5c-0.7-2.1-2.1-3.8-4-4.9
			c-1.3-0.7-2.8-1.1-4.3-1.1l-9.1,0.1c-4.7,0.1-8.4,4-8.3,8.6c0,0,0,0,0,0.1c0.1,2.2,1.1,4.3,2.7,5.8
			C861.7,1783.8,863.9,1784.6,866.1,1784.6L866.1,1784.6z"/>
		<path class="st11" d="M842.3,1768.3l-9.6,0.4c-1.6,0-3.1,0.5-4.4,1.3c-1.9,1.3-3.2,3.1-3.9,5.3c-0.3,1.5-0.2,3,0.2,4.5
			c0.4,0.8,0.6,1.7,0.7,2.5l-0.4-2.3c0.2,1,0.2,2,0.1,3l0.3-2.4c-0.1,1-0.4,2-0.7,3l0.8-2.1c-0.3,0.9-0.8,1.7-1.4,2.5l1.3-1.8
			c-0.5,0.7-1.1,1.4-1.8,1.9l1.7-1.4c-1.1,0.9-2.4,1.6-3.5,2.5c-2.3,1.5-4.1,3.5-5.5,5.8c-1.3,2.3-1.8,4.8-1.7,7.4
			c0.1,2,0.7,3.9,1.7,5.6c1,1.7,2.4,3,4.1,4l4-16.3l-14.2,1.1c-1.6,0-3.1,0.5-4.4,1.3c-1.8,1.3-3.2,3.2-3.8,5.4
			c-0.3,1.5-0.3,3,0.2,4.5l4.9,18.7l4.9,18.8l2.7,10.6l12.6-10.1c-6.1-3.9-12.1-8-18-12.3l1.8,1.3c-8.1-5.9-15.8-12.2-23.4-18.7
			s-14.7-13.4-21.7-20.5c-3.9-4-7.7-8.1-11.4-12.3c-1.8-1.4-4-2.3-6.3-2.3c-1.2,0-2.3,0.3-3.4,0.9c-1.1,0.4-2,1-2.8,1.8
			c-1.6,1.7-2.4,3.9-2.4,6.2l0.4,2.3c0.4,1.4,1.3,2.7,2.3,3.8c4.3,4.8,8.6,9.4,13.1,14c4.5,4.6,9.1,9,13.8,13.3
			c4.7,4.3,9.6,8.5,14.6,12.5c5.5,4.5,11.1,8.8,16.8,13c5.2,3.8,10.4,7.4,15.8,10.9l2.1,1.2l2.1,0.8l2.3,0.2l2.3-0.4
			c1.1-0.2,2.1-0.8,2.9-1.6c1.2-0.9,2.1-2.2,2.6-3.6c0.4-0.7,0.6-1.4,0.5-2.2c0.3-1.2,0.2-2.4-0.2-3.5l-4.9-18.7l-5.1-18.4
			l-2.8-10.6l-8.1,11.2l14.3-1.1l2.3-0.4c1.1-0.3,2.1-0.9,2.9-1.7c0.6-0.4,1.1-1,1.5-1.6c0.8-0.8,1.4-1.9,1.6-3l0.3-2.3l-0.4-2.3
			c-0.8-2.1-2.2-3.9-4.2-5.1l-0.4-0.2l1.9,1.4c-0.2-0.1-0.4-0.3-0.5-0.5l1.4,1.7l-0.3-0.6l0.9,2.1c-0.1-0.3-0.2-0.6-0.3-0.9l0.4,2.3
			c-0.1-0.4-0.1-0.7,0-1.1l-0.3,2.3c0-0.5,0.2-1,0.3-1.4l-0.8,2c0.2-0.4,0.4-0.8,0.6-1.2l-1.3,1.8c0.4-0.5,0.8-1,1.4-1.4l-1.7,1.4
			c1.1-0.9,2.4-1.6,3.5-2.5c1.1-0.8,2.2-1.7,3.2-2.7c0.9-1,1.7-2,2.4-3.1c1.1-1.7,1.9-3.5,2.4-5.4c0.2-0.6,0.3-1.2,0.4-1.8
			c0.2-1.4,0.4-2.8,0.4-4.2c-0.1-1.4-0.2-2.9-0.6-4.2c-0.2-0.7-0.4-1.4-0.7-2.1l-8.1,11.3l9.5-0.4c2.3-0.1,4.5-1,6.1-2.7
			c0.8-0.8,1.3-1.8,1.6-2.9c0.5-1.1,0.8-2.2,0.7-3.4c-0.1-4.8-4.1-8.6-8.9-8.5L842.3,1768.3z"/>
		<path class="st11" d="M864.5,1733.8c0.1-0.4,0.1-0.8,0.1-1.2l0.1-1.2l-0.1-2.7c-0.4-0.2-0.5-0.3-0.6-0.3l-0.5-1.1
			c-0.2-0.4-0.3-0.7-0.5-1.1l0,0l0,0l0,0l-1.4-1.7l0,0l-0.3-0.1l-1-0.5l-1-0.6l0,0l0,0l0.2,0.1l-2-0.8l0,0l0.4,16.4l2.5-0.6
			c1.1-0.3,2.1-0.8,2.9-1.6c1.8-1.4,2.9-3.4,3.1-5.7c0.2-1.1,0.1-2.3-0.2-3.4l-0.9-2c-0.8-1.2-1.9-2.3-3.1-3l-2.1-0.8
			c-1.5-0.4-3-0.3-4.5,0.2l-2.5,0.6l-2,0.9c-1,0.6-1.8,1.3-2.3,2.3c-0.5,0.5-0.9,1.2-1,1.9c-0.5,1-0.7,2.2-0.6,3.3l0.4,2.3l0.9,2
			c0.5,1,1.3,1.8,2.3,2.3c0.8,0.8,1.8,1.3,2.9,1.6l0,0l-2-0.8l0.4,0.2l-1.8-1.3l0.3,0.2l-1.4-1.7c0.1,0.1,0.2,0.2,0.2,0.4l-0.9-2
			l0.1,0.4l-0.4-2.3c0,0.1-0.1,0.2-0.2,0.3l0.3-2.3l0,0c-0.3,1.1-0.3,2.3,0,3.4c0.3,2.2,1.5,4.2,3.3,5.5c0.8,0.8,1.8,1.3,2.9,1.5
			l2.3,0.3c1.5,0,2.9-0.5,4.1-1.2l1.7-1.4c1-1.1,1.7-2.4,2.1-3.8L864.5,1733.8z"/>
	</g>
</g>
<g>
	<defs>
		<path id="SVGID_7_" d="M157,857.7c2.6,117.4,2.3,219.4,1,302c-1.2,75.2-2.8,169.8-10.5,294.5c-6.1,99.4-14,184.3-21,250
			c-17.4,131.2,85.1,235.5,183,233c94.6-2.4,189.2-104.7,173-231c-8.3-81-17.5-187.6-23-313c-1.8-39.7-5.5-135-5-295
			c0.4-133.9,3.9-311.8,16-525c7.7-99.7,15.3-199.3,23-299c11-112.6-74.2-207.2-171-212c-102.8-5.1-200.9,91.9-190,212
			c5,100.6,9.6,182.8,13,241c4.8,81.3,10.4,154.1,11,258C156.7,801.3,156.8,829.5,157,857.7z"/>
	</defs>
	<clipPath id="SVGID_8_">
		<use xlink:href="#SVGID_7_"  style="overflow:visible;"/>
	</clipPath>
	<path class="st12" d="M645.6,470.6c-327-176,0,0.7-327-176c0,0,0,19.6-342.5,176C-192,547.3,125.9-68.5,310.8-68.5
		S808.2,558.1,645.6,470.6z"/>
</g>
</svg>
