<svg xmlns="http://www.w3.org/2000/svg" xmlns:xlink="http://www.w3.org/1999/xlink" viewBox="0 0 883.4 1888.74"><defs><style>.cls-1{fill:none;}.cls-14,.cls-2{fill:#333;}.cls-3{opacity:0.3;}.cls-4{clip-path:url(#clip-path);}.cls-5{fill:#f2f2f2;}.cls-16,.cls-6{fill:#dd5959;}.cls-12,.cls-14,.cls-6{stroke:#000;}.cls-12,.cls-14,.cls-16,.cls-6{stroke-miterlimit:10;}.cls-7{fill:#e6e6e6;}.cls-8{clip-path:url(#clip-path-2);}.cls-9{fill:#b3b3b3;}.cls-10{clip-path:url(#clip-path-3);}.cls-11{clip-path:url(#clip-path-4);}.cls-12{fill:#4d4d4d;}.cls-13{clip-path:url(#clip-path-5);}.cls-15{clip-path:url(#clip-path-6);}.cls-16{stroke:#dd5959;}.cls-17{isolation:isolate;font-size:70.86px;fill:#eee;font-family:HalloweenSpider, Halloween Spider;}</style><clipPath id="clip-path" transform="translate(-303.55 -7.38)"><path class="cls-1" d="M1798.75,1253.48q-106.95-40.27-148.72-64.79-75.71-42-99.84-165.72-20-102.87,26.83-192.58t145.19-121.91l-2.86-14.72C1768.61,678.14,1845,652,1845,652V641.8L1620.76,702q-14.29,5-66.61-6.58-77.58-17.54-139.25-82.64-61.77-64.93-77.25-144.42Q1318,367.9,1370.48,290.58l-9.64-4.63q41.48-70.18,71-120.95h-13.75q-38.82,58.67-63.8,98.34-33.87,49.94-50.32,77-40.65,49-135,67.37-178.43,34.56-297.68-96.46c-20.86-24.77-33.26-43.4-37.09-55.72Q812.75,151.86,797.71,88H787.14q9.2,66.58,17,106.34l-10.51,2q18.24,116.22-45.9,211.38T568.19,525.35Q457,547,360.67,476.44l-.42-2.12-5.42,5.46Q277.94,424.55,227.25,389H211.68q50.52,39.64,101.69,79.23,113,89,129.78,175Q465.54,758.54,397.38,861T215.9,985.54a325.14,325.14,0,0,1-36,4.79l-5-3.37c-1.84,6.13-3.33,9.38-4.71,9.66L0,1019.79v13.45q91.82-9,153-16.62l77-8.35q87,9.18,147.55,73.84t77.71,153q24.13,124-31.27,198.18-45.23,48.12-71,72.69-48.6,45.66-96.06,91h29q51.85-49.85,87.63-86.25l2.55,1.71q63.67-53.89,133.16-67.35,115.59-22.45,215.29,46.51t122.15,184.72q7,35.76-4,136.12l-3,25.54h8.15s12.89-86.2,16.67-117.45q44.87-150.33,214.89-183.42,105-20.4,180.28,19.42,56,30.38,113.11,111c12.06,18,24,35.9,35.84,53.49h14.63l-7.9-13.84q-53.21-94.23-57.67-117.32-23.68-121.81,38.12-224.22t181.41-125.69q65-12.65,148.44,12.52l4.27-11.76q71.42,26.13,120.15,43.69v-11C1834.42,1267.09,1817.25,1260.45,1798.75,1253.48ZM1618.49,724.25q-8.37,1.62,28.5,1-153.21,108.19-116.11,299.19,16,82,71.8,145.12L1532,1142l-.8-4.2q-110.51-41.68-133-157.16Q1358.21,774.79,1618.49,724.25Zm-1012.6,406q-21.6-111.16-118.36-149.11,157.19-32.65,184,105.87,15.51,79.82-45.16,137.32l2.91,3.77-36.63,35.5Q618.57,1195.34,605.89,1130.25ZM600.5,721.73A235.46,235.46,0,0,0,584,670.49Q652.6,720.26,663.17,775h0q12.66,65-29,120T527.6,951.63l-1.29,4.58-44.88,4.4q67.21-34.93,100.32-100.18T600.5,721.73Zm623.66-143q14.27,73.49,68.78,123.89t128.61,62.15h0l-121.43,36.69q-43.23,12.71-87-27.77T1160.64,689q-10.2-52.37,17.38-101.27l-.42-2.14,43.11-69.39Q1217.19,543,1224.16,578.7Zm18.12,384.21c6,30.91,18.22,56.81,36.86,77.87l-84.53-31.57,4.22-11.68-2.1.41q-42.27-15.72-50.4-57.71-16.33-84,126.37-111.76l8.45-1.65Q1226.73,883.25,1242.28,962.91Zm-447.41,52.16q-9-46.17-41.57-68.12l71.78-11.81,3.73,8,2.48,1.71c18.48-2.23,29.86,8,34.25,30.4q3.24,16.77-25.41,48.48-24.51,20-46.8,39.59Q799.33,1038.23,794.87,1015.07ZM683.79,1082.5Q667.86,1000.55,598,966.24l6.3-1.21Q671.5,952,725.53,950.15q48.62,25.43,57.15,69.47,7.74,39.87-34.87,89.56-36.79,35.57-73,73.08C687,1147.94,690,1114.68,683.79,1082.5Zm-2.18-310.75c-1.36-7-5.21-19.34-11.58-37q61,44.72,91.5,67.14l5.76,18.5c4.6,23.8.35,46.46-12.92,67.9S723.25,922.65,700.88,927L690,926.93l-.07,10.91-85.64,7.94Q703.74,885.14,681.61,771.75Zm447.5,169.66a108.46,108.46,0,0,0,25.33,51.72l-2.13.41c-20.07-6.27-39.64-13.27-58.6-21.25q-38.09-16.57-41.3-33.35c-3.82-19.66,3-33.26,20.33-41-.26-1.43-.67-3.43-1.23-6.35l-1.23-6.25,74.75-19Q1120.93,899.31,1129.11,941.41Zm-161-10,74.06,33.44c-15.18,4.46-26.22,14.61-33.26,30.43Zm36.47,86.55c-13.69-3.17-24.73-4-33.17-2.3-12.54,2.4-22.4,8-29.4,16.68,3.53-41.35,5.26-77.35,5.16-107.76l7.18-8,49.4,97.09Zm28.09-79.56,4.14,10.12c-32.43-9.71-56.41-17.33-72-23.11L956,914q32-4,75.19-16.77l11.32,2.16Q1029,919.47,1032.66,938.36ZM969.91,907l30.46-45.05c8.25,12.92,15.16,21.7,20.38,26.4Zm60.62-35.75c-7.25-7.32-11.42-13.73-12.51-19.38q-2.87-14.64,17.46-44.75c9-13.42,18.78-26.87,29.15-40.54q1.09,28.14,25.48,52.75c16.27,16.52,33.48,26.56,51.67,30.28l-92.44,28.88C1044.06,881,1037.72,878.57,1030.53,871.23Zm-18.22-49.16-5-3.37c-8.42,9-16.85,14.16-25.23,15.8-23.82,4.64-37.58-2.82-41.41-22.46l-13.85-82.32q51,38.07,103.46,27.92c1.39-.28,5.46-1.85,12.22-4.61,4.21-.8,7.68-1.49,10.52-2h0Zm-60.42,81.86q3-7.09-4.3-55.77c13.08,7.63,26.66,10.06,40.61,7.33l5.91-3.29h0q-18.58,38.47-28.43,55.61l-21.42,12.9-2.93-3.83,4.17-.81-8.77-.45q-33.87-28.2-51.78-42.19,32.31-1.89,50.49-31.65Q947.85,883,951.89,903.93Zm-24,11.22h0l-55.82,4.29c6.51-11.34,9.37-22.85,8.59-34.25ZM933,918.5l7.52,5.14-59.09,55.07q-3.58-29.88-23.66-43.38l7.57-5.82C884.12,928.78,906.58,925.1,933,918.5ZM945.51,927l-16,96.72c-9.94-21.24-26.78-29.62-50.68-25Zm-7.46,135.41q3.51-32.26,30.81-37.57t45.23,19.46l5.85-3.25,34.46,65.21q-29.72-18.21-67.51-10.86-31.39,6.12-53.38,27.83Q934.58,1094.77,938.05,1062.42Zm80.76-49.48c1-17.6,11.17-28.27,30.82-32.1a74.41,74.41,0,0,1,20.14,2.57l.87-6.65,54.8,24.18c-15.14,4.43-29.27,15.83-42.34,34.39s-19.55,35.75-19.37,51.65Zm106.57-191.72c-22.79-12.23-36.42-30.31-41.06-54.1q-4.9-25.3,16.29-62,18.62-27.63,36.81-57.28c-.13,14.54.81,26.7,2.72,36.52q20,102.87,108.35,131.43l-51.28,16.48-.83-4.19Q1159.45,839.63,1125.38,821.22Zm-44.11-114.57-7.15-2.92c-6.49,18.64-22.33,30.49-47.52,35.36q-94.45,18.4-113.67-80.28l-7.28-48.67q66.27,72,175.51,50.86c4.14-.83,15.65-5.25,34.43-13.23ZM905.9,723.35l3.77-2.9,17.55,90.29L921,812q2.28,34.39-31.26,40.91c-9.8,1.91-19.61.23-29.33-5.19l-3.43,5L779.7,791.46c12.25,3.42,26.1,3.7,41.48.7Q884.23,780,905.9,723.35Zm-118.82,95C817.46,840,840.15,856,855.27,866.1l7.38,16c1.36,7-.27,15.31-4.95,24.93s-9.79,15-15.37,16L731.1,933.8c18.52-9.4,33.8-25.79,46-49.17S792.54,839.06,787.08,818.36ZM859,1020.07l4.62,1.3a31,31,0,0,1,17.63-10q29.37-5.75,46.09,23.76l-13.68,109.31c-1.25-21.46-13.35-40.56-36.14-57.18s-43.93-22.35-63.24-17.12L810,1071Zm72.77,116.59c16.9-17.85,34.37-28.55,52.59-32.1q54.63-10.61,96.23,46.74,5.85,7.52,57.38,104.26-57.83-38.89-122.82-26.18-60.87,11.8-100.12,56.45Q926.45,1187.84,931.77,1136.66Zm147.37-26.55q-6.11-31.36,14-62.61,20.13-31.05,51.54-37.22c4.49.62,7.45.7,8.79.44q92.12,36.46,137.29,56.14c-42.27,6.73-77.11,23.77-104.5,50.78s-42.07,62-44,104.46Q1078.35,1105.93,1079.14,1110.11Zm66.06-511.75q-30,36.38-80.35,46.2-56.65,11-109.41-19.13-52.68-30-63.66-86.68L877,463.12q90,115.47,241.17,86A233.71,233.71,0,0,0,1195.15,519Q1146.9,595.89,1145.2,598.36ZM886.33,611.74l11.4,58.7-4.15.81q9.63,83.12-76.51,99.85c-28,5.45-49.27.24-64.05-15.86l-8.89,10.42-48.42-36.25c21.81.08,39-1,51.61-3.5Q852.27,705.48,886.33,611.74ZM840.45,650q-42.27,46.37-98.88,57.39c-33.56,6.52-62.59,3.35-86.78-9.31q-4.57-1.29-71.06-51.53,41.09,9.48,87.28.42,149-29,185.51-177.65l15.92,81.91Q882.63,603.66,840.45,650ZM644,1236.21q32.87-32.6,60.16-37.91,58.8-11.43,110.39,24.36t63.42,96.57c.83,4.19,1.21,11.74,1.18,22.63s.25,18.51,1.08,22.74l.42,2,6-14.23-11,100.2q-14.23-95.33-87.51-142.06t-170-28c-11.18,2.16-19.34,5.24-24.39,9.17Q618.65,1262.89,644,1236.21Zm240.55,105.72a86.84,86.84,0,0,0-1.09-28.19q-12.61-64.9-66.73-102.44-54.15-37.3-121.36-24.4,83.56-85.83,98.3-99.72l16.4-5.32q33.53-6.48,62.41,13c19.23,13,31,30.59,35.34,53q3.3,16.8-6.16,97.08C895.31,1298.36,889.65,1330.78,884.51,1341.93Zm28.77-42.68q34.29-47.93,99.32-60.66,100.76-19.6,152.34,66.26l2.11-.42,66.84,119.94q-92.25-93.24-211.82-70-77.76,15.09-122.93,84.94C905.82,1377,910.66,1330.3,913.28,1299.25Zm314.22,69.69L1156,1247.67q-6.88-57.36,27.58-104.42t91.14-58.08q46.1-9,160,38.6-94.12,20.49-150.18,84.85T1227.5,1368.94Zm105.68-308.2q-59-34.23-71.6-99.34-22-113.4,80-148.5l1.36-4.49,98.71-30.19q-83.15,88.1-60.28,205.64,14.68,75.58,70.31,125.8Q1343.13,1067.57,1333.18,1060.74Zm-11.32-708q-14.91,57.36-2.75,120.39,18.38,94.49,86.81,160.67T1567.76,721h0l-79,19.75q-83.94,16.32-155.63-32.92t-88-133.22c-3.54-18.25-3.64-42.58-.08-73.06s11.21-49,22.95-55.65l-2.5-1.67ZM994.18,415.33Q1082.76,445,1173,427.39c37.81-7.35,71.61-19.73,101.64-37.24L1248,432.44l-2.09.4q-31.07,75.77-131.79,95.3-81.95,15.95-159.69-25.61T860.72,379.16L848.08,314.1Q905.59,385.77,994.18,415.33ZM572.54,544.12Q671.23,525,743.15,446.69t76.62-177.26L843.46,391.3q13,78-42.69,149.87Q744.91,613,665.23,628.52q-84,16.31-144.07-35.15l-3.83,2.93-78.54-56.74Q509.54,556.51,572.54,544.12ZM429.16,843.21Q480.54,743,460.48,640.05q-7.78-39.87-28.49-79.4,47.56,32,93.6,66.74,45,41.33,56,98,15.89,81.79-29.54,150.66T426.91,960.34c-14,2.72-24,3.91-29.79,3.6l-.93,6.67-115,13.65Q377.89,943.7,429.16,843.21ZM468.64,1231q-34.71-178.34-190-226.61Q387.67,983.16,449,984.29q48.57,3.71,90.58,51.15,41.85,47.32,52.08,99.81,16.73,86.12-29.37,151.61-9.71,17.25-108.4,114.83Q485.44,1317.06,468.64,1231ZM850,1679.84c.59-11.77-3.57-29.9-12.68-54.22q-34.8-100-131.74-156.27-97-56.4-202-35.92-39.87,7.72-83.23,31.42,48.57-53,97.45-103.95,64.56-60.3,117-70.65,88.06-17.16,154.42,32,66.18,49.34,82.9,135.37Q875,1472.36,850,1679.84Zm484.93-83.39q-110.61-98.35-255.51-70.23-149,29-211,169.58,18.44-162.54,28.93-243.06,47-72.35,122.58-87.08,146.85-28.54,237.21,110.75l5.87-3.33,71.94,123.37Zm241-373.66q-119.65,23.22-186,124.33t-49.48,222.07l-98.87-172.51q-8.43-87.72,42.61-161.86t137-90.9c23.83-4.64,41.85-5.3,54.17-1.84,18.15,3.75,50.13,15.25,96,34.72s74.83,33.75,86.83,43.07C1628.58,1216.85,1601.2,1217.88,1576,1222.79Z"/></clipPath><clipPath id="clip-path-2" transform="translate(-303.55 -7.38)"><rect class="cls-1" x="976" width="51" height="1599"/></clipPath><clipPath id="clip-path-3" transform="translate(-303.55 -7.38)"><rect class="cls-1" x="976" y="1793" width="51" height="104"/></clipPath><clipPath id="clip-path-4" transform="translate(-303.55 -7.38)"><rect class="cls-1" x="450.99" y="252.2" width="67.51" height="1273.35" transform="translate(-305.93 256.49) rotate(-22.74)"/></clipPath><clipPath id="clip-path-5" transform="translate(-303.55 -7.38)"><rect class="cls-1" x="481.99" y="50.2" width="67.51" height="1273.35" transform="translate(-225.43 252.77) rotate(-22.74)"/></clipPath><clipPath id="clip-path-6" transform="translate(-303.55 -7.38)"><rect class="cls-1" x="429.99" y="468.2" width="67.51" height="1273.35" transform="translate(-391.06 265.17) rotate(-22.74)"/></clipPath></defs><g id="Layer_2" data-name="Layer 2"><g id="Layer_1-2" data-name="Layer 1"><path class="cls-2" d="M849.5,816.07c2.64,117.36,2.32,219.39,1,302-1.21,75.21-2.84,169.79-10.5,294.5-6.11,99.36-14,184.28-21,250-17.4,131.15,85,235.52,183,233,94.62-2.43,189.23-104.74,173-231-8.35-81-17.46-187.57-23-313-1.76-39.72-5.53-135-5-295,.44-133.91,3.89-311.82,16-525q11.49-149.49,23-299c11-112.63-74.24-207.19-171-212-102.76-5.1-200.94,91.88-190,212,5,100.62,9.58,182.82,13,241,4.76,81.26,10.38,154.09,11,258Q849.24,773.83,849.5,816.07Z" transform="translate(-303.55 -7.38)"/><g class="cls-3"><g class="cls-4"><path class="cls-5" d="M849.5,803.07c2.64,117.36,2.32,219.39,1,302-1.21,75.21-2.84,169.79-10.5,294.5-6.11,99.36-14,184.28-21,250-17.4,131.15,85,235.52,183,233,94.62-2.43,189.23-104.74,173-231-8.35-81-17.46-187.57-23-313-1.76-39.72-5.53-135-5-295,.44-133.91,3.89-311.82,16-525q11.49-149.49,23-299c11-112.63-74.24-207.19-171-212-102.76-5.1-200.94,91.88-190,212,5,100.62,9.58,182.82,13,241,4.76,81.26,10.38,154.09,11,258Q849.24,760.83,849.5,803.07Z" transform="translate(-303.55 -7.38)"/></g></g><path class="cls-6" d="M336.5,816.07c2.64,117.36,2.32,219.39,1,302-1.21,75.21-2.84,169.79-10.5,294.5-6.11,99.36-14,184.28-21,250-17.4,131.15,85.05,235.52,183,233,94.62-2.43,189.23-104.74,173-231-8.35-81-17.46-187.57-23-313-1.76-39.72-5.53-135-5-295,.44-133.91,3.89-311.82,16-525q11.49-149.49,23-299c11-112.63-74.24-207.19-171-212-102.76-5.1-200.94,91.88-190,212,5,100.62,9.58,182.82,13,241,4.76,81.26,10.38,154.09,11,258Q336.24,773.83,336.5,816.07Z" transform="translate(-303.55 -7.38)"/><ellipse class="cls-7" cx="170.41" cy="340.82" rx="10.46" ry="11.21"/><ellipse class="cls-7" cx="200.99" cy="340.82" rx="10.46" ry="11.21"/><ellipse class="cls-7" cx="200.99" cy="372.72" rx="10.46" ry="11.21"/><ellipse class="cls-7" cx="170.41" cy="372.72" rx="10.46" ry="11.21"/><ellipse class="cls-7" cx="170.41" cy="404.61" rx="10.46" ry="11.21"/><ellipse class="cls-7" cx="200.99" cy="404.61" rx="10.46" ry="11.21"/><ellipse class="cls-7" cx="170.41" cy="1497.62" rx="10.46" ry="11.21"/><ellipse class="cls-7" cx="200.99" cy="1497.62" rx="10.46" ry="11.21"/><ellipse class="cls-7" cx="200.99" cy="1529.52" rx="10.46" ry="11.21"/><ellipse class="cls-7" cx="170.41" cy="1529.52" rx="10.46" ry="11.21"/><ellipse class="cls-7" cx="170.41" cy="1561.41" rx="10.46" ry="11.21"/><ellipse class="cls-7" cx="200.99" cy="1561.41" rx="10.46" ry="11.21"/><g class="cls-8"><path class="cls-9" d="M849.5,677.52c2.64,97.43,2.32,182.14,1,250.73-1.21,62.44-2.84,141-10.5,244.49-6.11,82.49-14,153-21,207.56-17.4,108.88,85,195.53,183,193.44,94.62-2,189.23-87,173-191.78-8.35-67.25-17.46-155.73-23-259.86-1.76-33-5.53-112.09-5-244.91.44-111.18,3.89-258.88,16-435.87q11.49-124.11,23-248.23c11-93.52-74.24-172-171-176-102.76-4.23-200.94,76.28-190,176,5,83.53,9.58,151.78,13,200.08,4.76,67.46,10.38,127.93,11,214.2Q849.24,642.44,849.5,677.52Z" transform="translate(-303.55 -7.38)"/></g><g class="cls-10"><path class="cls-9" d="M849.5,1837.07a23.68,23.68,0,0,1,1,16.3c-1.21,4.06-2.84,9.17-10.5,15.91-6.11,5.36-14,10-21,13.5-17.4,7.08,85,12.71,183,12.58,94.62-.13,189.23-5.66,173-12.48-8.35-4.37-17.46-10.13-23-16.9a22,22,0,0,1-5-15.93c.44-7.23,3.89-16.83,16-28.35l23-16.14c11-6.08-74.24-11.19-171-11.45-102.76-.27-200.94,5-190,11.45,5,5.43,9.58,9.87,13,13,4.76,4.39,10.38,8.32,11,13.93C849.16,1834,849.33,1835.55,849.5,1837.07Z" transform="translate(-303.55 -7.38)"/></g><g class="cls-11"><path class="cls-12" d="M336.5,816.07c2.64,117.36,2.32,219.39,1,302-1.21,75.21-2.84,169.79-10.5,294.5-6.11,99.36-14,184.28-21,250-17.4,131.15,85.05,235.52,183,233,94.62-2.43,189.23-104.74,173-231-8.35-81-17.46-187.57-23-313-1.76-39.72-5.53-135-5-295,.44-133.91,3.89-311.82,16-525q11.49-149.49,23-299c11-112.63-74.24-207.19-171-212-102.76-5.1-200.94,91.88-190,212,5,100.62,9.58,182.82,13,241,4.76,81.26,10.38,154.09,11,258Q336.24,773.83,336.5,816.07Z" transform="translate(-303.55 -7.38)"/></g><g class="cls-13"><path class="cls-14" d="M336.5,816.07c2.64,117.36,2.32,219.39,1,302-1.21,75.21-2.84,169.79-10.5,294.5-6.11,99.36-14,184.28-21,250-17.4,131.15,85.05,235.52,183,233,94.62-2.43,189.23-104.74,173-231-8.35-81-17.46-187.57-23-313-1.76-39.72-5.53-135-5-295,.44-133.91,3.89-311.82,16-525q11.49-149.49,23-299c11-112.63-74.24-207.19-171-212-102.76-5.1-200.94,91.88-190,212,5,100.62,9.58,182.82,13,241,4.76,81.26,10.38,154.09,11,258Q336.24,773.83,336.5,816.07Z" transform="translate(-303.55 -7.38)"/></g><g class="cls-15"><path class="cls-14" d="M336.5,816.07c2.64,117.36,2.32,219.39,1,302-1.21,75.21-2.84,169.79-10.5,294.5-6.11,99.36-14,184.28-21,250-17.4,131.15,85.05,235.52,183,233,94.62-2.43,189.23-104.74,173-231-8.35-81-17.46-187.57-23-313-1.76-39.72-5.53-135-5-295,.44-133.91,3.89-311.82,16-525q11.49-149.49,23-299c11-112.63-74.24-207.19-171-212-102.76-5.1-200.94,91.88-190,212,5,100.62,9.58,182.82,13,241,4.76,81.26,10.38,154.09,11,258Q336.24,773.83,336.5,816.07Z" transform="translate(-303.55 -7.38)"/></g><g id="Layer_2-2" data-name="Layer 2"><g id="Layer_1-2-2" data-name="Layer 1-2"><g id="Layer_2-2-2" data-name="Layer 2-2"><g id="Layer_1-2-2-2" data-name="Layer 1-2-2"><g id="Layer_2-2-2-2" data-name="Layer 2-2-2"><g id="Layer_1-2-2-2-2" data-name="Layer 1-2-2-2"><path class="cls-16" d="M1034.44,1641.33l-1.67-2.84a3,3,0,0,0-2.57-1.51,3,3,0,0,0-2.64,1.49,9.12,9.12,0,0,1-.89,1.39l.48-.61a10.62,10.62,0,0,1-1.91,1.88l.64-.49-.33.24,4.39,1.85-.53-4a3.13,3.13,0,0,0-.79-1.32,2.33,2.33,0,0,0-1-.63,2.23,2.23,0,0,0-1.1-.26,3.11,3.11,0,0,0-1.52.4,30.09,30.09,0,0,0-5.29,4.53l4.72.6h0l.3.74a23.89,23.89,0,0,1-1.56-6l.1.77c0-.48-.1-1-.12-1.46l-.11-.77a2.12,2.12,0,0,0-.54-1,1.37,1.37,0,0,0-.54-.53,2.33,2.33,0,0,0-1-.53l-.77-.12-.71.07a2.13,2.13,0,0,0-1.06.55,2.18,2.18,0,0,0-.8.85q-3.86,5.28-7.63,10.58l-2.13,3,5.58,1.51q.36-3.62.81-7.2l.28-2-.11.77q.8-5.74,1.87-11.39c.2-1.07.41-2.14.62-3.2a2.28,2.28,0,0,0,0-1.16,2.67,2.67,0,0,0-1.14-2,2.18,2.18,0,0,0-1-.53,3,3,0,0,0-2.28.31l-.65.49a2.85,2.85,0,0,0-.74,1.32c-.62,3.09-1.18,6.17-1.68,9.26-.53,3.33-1,6.68-1.41,10-.21,1.74-.39,3.51-.56,5.29l.09.76a2.13,2.13,0,0,0,.55,1.06,1.35,1.35,0,0,0,.55.56,2.46,2.46,0,0,0,1,.53l.76.1.77-.09a2.24,2.24,0,0,0,1.05-.56,2.15,2.15,0,0,0,.8-.84q3.75-5.39,7.59-10.66l2.17-3-5.58-1.52a26.11,26.11,0,0,0,1.23,6.72c.25.79.57,1.55.88,2.31a3,3,0,0,0,1.11,1.11,3.23,3.23,0,0,0,2.24.3,3.09,3.09,0,0,0,1.32-.8,26,26,0,0,1,3.46-3.17l-.64.49c.38-.31.78-.59,1.18-.86l-4.39-1.84.51,4a3.1,3.1,0,0,0,.8,1.39,3.38,3.38,0,0,0,2.07.85,2.86,2.86,0,0,0,1.51-.39,13.42,13.42,0,0,0,2.42-2.09,14.07,14.07,0,0,0,1.16-1.51,9.57,9.57,0,0,0,.68-1.1h-5.2l1.69,2.86a2.16,2.16,0,0,0,.8.87,2.07,2.07,0,0,0,1,.53,3.39,3.39,0,0,0,2.28-.29,3.06,3.06,0,0,0,1.4-1.81,3.18,3.18,0,0,0-.3-2.28Z" transform="translate(-303.55 -7.38)"/><path class="cls-16" d="M1042.91,1635.61l-1.58-2.8-2.53,4.32a12.78,12.78,0,0,0,6-1.32,2.89,2.89,0,0,0,1.07-1.07,2.44,2.44,0,0,0,.33-1,2.09,2.09,0,0,0,0-1.11,2.85,2.85,0,0,0-.77-1.32l-3-2.34-.6,4.56c.44-.21.89-.41,1.33-.59l-.73.29a25.85,25.85,0,0,1,4.28-1.33,3,3,0,0,0,1.33-.76,3.28,3.28,0,0,0,.83-2,3,3,0,0,0-.38-1.47,29.57,29.57,0,0,0-2.38-2.74,23.16,23.16,0,0,0-2.23-2c-.62-.49-1.32-1-1.93-1.41l-1.45,5.39c4.2-.43,8.4-.84,12.6-1.2l3.55-.3.74-.1a2.17,2.17,0,0,0,1-.53,1.47,1.47,0,0,0,.53-.52,2.22,2.22,0,0,0,.51-1l.1-.72-.08-.74a2.26,2.26,0,0,0-.54-1,2.17,2.17,0,0,0-.84-.75c-3-1.32-6-2.65-9-3.9-2.82-1.15-5.63-2.26-8.48-3.31-1.61-.58-3.22-1.16-4.85-1.71a2.23,2.23,0,0,0-1.09,0,2.61,2.61,0,0,0-1.93,1.1,2.18,2.18,0,0,0-.5,1,2.92,2.92,0,0,0,.28,2.2l.47.62a3.05,3.05,0,0,0,1.33.73q5.28,1.82,10.49,3.87c1,.38,2,.78,2.93,1.19l-.69-.28c2.15.89,4.26,1.8,6.38,2.76l1.8.82,1.41-5.48q-6.3.51-12.59,1.15l-3.54.36-.74.09a2.2,2.2,0,0,0-1,.53,1.47,1.47,0,0,0-.52.53,2.2,2.2,0,0,0-.52,1l-.09.73.09.74a2.17,2.17,0,0,0,.53,1,2.07,2.07,0,0,0,.83.75c.4.28.81.56,1.19.85l-.59-.45a22.43,22.43,0,0,1,4.22,4.21l-.48-.62h0l1.77-4.24a28.27,28.27,0,0,0-6.33,2.2,2.75,2.75,0,0,0-1.07,1.07,2.16,2.16,0,0,0-.33,1,2.13,2.13,0,0,0,0,1.12,2.89,2.89,0,0,0,.76,1.32l3,2.35.6-4.56-.37.16.71-.29a10.09,10.09,0,0,1-2.55.67l.74-.09a10.55,10.55,0,0,1-1.59,0,2.85,2.85,0,0,0-2.52,1.45,2.93,2.93,0,0,0,0,2.87l1.59,2.78a2,2,0,0,0,.76.84,2.64,2.64,0,0,0,2.08.56,2.16,2.16,0,0,0,1.1-.34,2.92,2.92,0,0,0,1.32-1.72,3,3,0,0,0-.3-2.22Z" transform="translate(-303.55 -7.38)"/><path class="cls-16" d="M1044,1647.07l2.81-1.55-4.24-1.79a4.29,4.29,0,0,0,.14.62,8.81,8.81,0,0,0,.53,1.26,5.69,5.69,0,0,0,.33.52,9.79,9.79,0,0,0,.88,1,6.74,6.74,0,0,0,1,.82,3.94,3.94,0,0,0,.55.35,6.12,6.12,0,0,0,2.54.71c.53.07,1.07,0,1.62.12l-.74-.1a2.67,2.67,0,0,1,.62.15l-.69-.29a2.3,2.3,0,0,1,.4.23l-.6-.45a2.19,2.19,0,0,1,.34.34l-.47-.61a1.11,1.11,0,0,1,.17.3l-.29-.72a1,1,0,0,1,.08.29l-.09-.74a1,1,0,0,1,0,.25l-1-.72v.17l1.33-.68v.07l-.3.7a2.32,2.32,0,0,0,0,1.11,1.47,1.47,0,0,0,.2.74,2.3,2.3,0,0,0,.63,1l.6.46.7.28a3.29,3.29,0,0,0,2.22-.28l4.23-2.19-4.27-1.81,1.88,6.2,1.88,6.25,1.06,3.51.29.73.48.63.6.45a2.45,2.45,0,0,0,1.07.34,1.58,1.58,0,0,0,.75,0,1.49,1.49,0,0,0,.74-.2,1.55,1.55,0,0,0,.68-.39,2.22,2.22,0,0,0,.57-.79c1-1.92,1.83-3.89,2.67-5.87.91-2.17,1.79-4.38,2.6-6.61.7-2,1.33-4,2-6.12s1.19-4.13,1.67-6.17,1-4.2,1.34-6.31l.14-.79a2.13,2.13,0,0,0,0-1.12,2.7,2.7,0,0,0-1.12-2,2.31,2.31,0,0,0-1-.52,3,3,0,0,0-2.22.29l-.62.49a2.81,2.81,0,0,0-.75,1.33c-.59,3.3-1.34,6.58-2.18,9.82s-1.87,6.46-3,9.62c-.64,1.77-1.33,3.52-2,5.27l.28-.7c-.9,2.19-1.88,4.37-2.91,6.51l5.35.72-1.87-6.21-1.77-6.38-1.07-3.54a2.94,2.94,0,0,0-.77-1.33,3.28,3.28,0,0,0-2-.85,3.24,3.24,0,0,0-1.49.39l-4.23,2.19,4,4a4.1,4.1,0,0,0,.48-1.88,4.37,4.37,0,0,0-.5-1.9,5,5,0,0,0-.74-1l-.22-.2a7.73,7.73,0,0,0-.79-.59,5.8,5.8,0,0,0-2.59-.61,7.48,7.48,0,0,1-1.41-.09l.74.1a3.71,3.71,0,0,1-.91-.24l.7.28a3.93,3.93,0,0,1-.84-.49l.6.47a4.52,4.52,0,0,1-.72-.73l.48.62a3.88,3.88,0,0,1-.51-.88l.29.73a3.54,3.54,0,0,1-.22-.85,3,3,0,0,0-.78-1.34,3.3,3.3,0,0,0-2-.84,3,3,0,0,0-1.48.39L1041,1642a2.93,2.93,0,0,0-1.09,4v0a3,3,0,0,0,1.78,1.34,3.06,3.06,0,0,0,2.22-.28Z" transform="translate(-303.55 -7.38)"/><path class="cls-16" d="M1034.3,1646.25l-2.85,1.7a2.87,2.87,0,0,0-1.12,1.12,3.4,3.4,0,0,0-.31,2.26,3.16,3.16,0,0,0,.8,1.34,3.28,3.28,0,0,1,.64.65l-.49-.65a3.9,3.9,0,0,1,.52.91l-.31-.76a4.46,4.46,0,0,1,.27,1l-.09-.78a4.1,4.1,0,0,1,0,1l.1-.76a3.91,3.91,0,0,1-.22.88l.29-.72c-.2.45-.45.88-.67,1.33a6.28,6.28,0,0,0-.73,2.68,4.65,4.65,0,0,0,.71,2.54,4.31,4.31,0,0,0,1.43,1.42,4.14,4.14,0,0,0,1.91.55l-1.48-5.63-4.17,2.67a3.11,3.11,0,0,0-1.12,1.13,3.52,3.52,0,0,0-.27,2.26,3.05,3.05,0,0,0,.81,1.33l4.56,4.9,4.59,4.92,2.56,2.77,2.16-5.16c-2.52-.19-5-.44-7.51-.79l.78.11q-5.14-.72-10.21-1.85t-10-2.67c-1.84-.58-3.68-1.21-5.48-1.88a3.72,3.72,0,0,0-2.3.32,2.27,2.27,0,0,0-.89.82,2.43,2.43,0,0,0-.53,1,3.07,3.07,0,0,0,.29,2.28l.5.65a3.09,3.09,0,0,0,1.34.76q3.12,1.14,6.3,2.11c2.11.66,4.25,1.23,6.4,1.77s4.33,1,6.51,1.42c2.4.46,4.83.84,7.26,1.17,2.19.3,4.4.54,6.61.73h.84l.78-.11.75-.31.64-.49a2.18,2.18,0,0,0,.63-1,2.88,2.88,0,0,0,.2-1.51,1.54,1.54,0,0,0-.2-.76,2.19,2.19,0,0,0-.64-1l-4.57-4.89-4.58-4.78-2.59-2.77-.61,4.76,4.17-2.67.64-.5a2.36,2.36,0,0,0,.61-1,1.9,1.9,0,0,0,.2-.74,2.36,2.36,0,0,0,0-1.18l-.3-.75-.49-.64a3.46,3.46,0,0,0-2.12-.87h-.14l.8.14a.62.62,0,0,1-.23-.07l.71.29-.2-.12.63.48a1.2,1.2,0,0,1-.23-.22l.5.64a1.5,1.5,0,0,1-.19-.32l.29.75a1.76,1.76,0,0,1-.13-.5l.09.75a1.69,1.69,0,0,1,0-.45l-.1.76a2.34,2.34,0,0,1,.18-.64l-.29.71c.19-.46.45-.89.67-1.34a9.11,9.11,0,0,0,.53-1.34,8.73,8.73,0,0,0,.23-1.34,6.81,6.81,0,0,0-.16-2.06,4.24,4.24,0,0,0-.17-.61,9.35,9.35,0,0,0-.58-1.34,7.34,7.34,0,0,0-.87-1.2,3.51,3.51,0,0,0-.55-.54l-.61,4.78,2.85-1.69a3.09,3.09,0,0,0,1.4-1.82,2,2,0,0,0,0-1.15,2.25,2.25,0,0,0-.35-1.15,3,3,0,0,0-4.12-1.11Z" transform="translate(-303.55 -7.38)"/><path class="cls-16" d="M1035.42,1632.52a3,3,0,0,0-.17-.41l-.17-.41-.49-.86h-.34l-.32-.61a2,2,0,0,0-.33-.24h0l-.69-.47h-.78l-.67.07h0L1034,1634l.59-.53a1.88,1.88,0,0,0,.55-.86,2.41,2.41,0,0,0,0-2,2.17,2.17,0,0,0-.56-.9l-.55-.41a2.68,2.68,0,0,0-1.3-.34l-.68.08a2.63,2.63,0,0,0-1.2.71l-.58.51-.41.54a2.08,2.08,0,0,0-.3,1,1.31,1.31,0,0,0,0,.68,2,2,0,0,0,.31,1l.45.57.53.41a2,2,0,0,0,1,.3,2,2,0,0,0,1,0h0l-.68.07h.11l-.74,1.32h.07l-.75-.29a.27.27,0,0,1,.14.07l-.63-.48.11.11-.5-.66v.13l-.31-.78h0a2.24,2.24,0,0,0,.57,1.1,2.81,2.81,0,0,0,2,1.18,2.15,2.15,0,0,0,1.18,0l.78-.31a3,3,0,0,0,1.09-1.11l.3-.73a3.06,3.06,0,0,0,0-1.59Z" transform="translate(-303.55 -7.38)"/></g></g></g></g><text class="cls-17" transform="translate(570.43 1701.51)">Spider</text></g></g></g></g></svg>